<?xml version="1.0" encoding="UTF-8"?>
<svg width="128" height="128" viewBox="0 0 128 128" xmlns="http://www.w3.org/2000/svg" role="img" aria-labelledby="title desc">
  <title>Blue Wine Glass Emoji - 82% full</title>
  <desc>Transparent wine glass filled to 82% with blue wine</desc>
  <defs>
    <filter id="shadow" x="-50%" y="-50%" width="200%" height="200%">
      <feDropShadow dx="0" dy="2" stdDeviation="2" flood-color="#000" flood-opacity="0.25"/>
    </filter>
    <linearGradient id="wineGrad" x1="0" y1="0" x2="0" y2="1">
      <stop offset="0%" stop-color="#4cc3ff"/>
      <stop offset="100%" stop-color="#0066cc"/>
    </linearGradient>
    <linearGradient id="glassGrad" x1="0" y1="0" x2="1" y2="1">
      <stop offset="0%" stop-color="#ffffff" stop-opacity="0.25"/>
      <stop offset="100%" stop-color="#ffffff" stop-opacity="0.05"/>
    </linearGradient>
    <linearGradient id="hl" x1="0" y1="0" x2="0" y2="1">
      <stop offset="0%" stop-color="#ffffff" stop-opacity="0.9"/>
      <stop offset="100%" stop-color="#ffffff" stop-opacity="0"/>
    </linearGradient>
  </defs>
  <ellipse cx="64" cy="110" rx="26" ry="6" fill="#000" opacity="0.08"/>
  <g filter="url(#shadow)">
    <rect x="60" y="76" width="8" height="26" rx="4" fill="url(#glassGrad)" stroke="#9aa4ad" stroke-opacity="0.7" stroke-width="2"/>
    <ellipse cx="64" cy="104" rx="22" ry="6" fill="url(#glassGrad)" stroke="#9aa4ad" stroke-opacity="0.7" stroke-width="2"/>
  </g>
  <g filter="url(#shadow)">
    <path id="bowl" d="M32,18 h64 c0,18 -10,34 -28,43 v13 h-8 v-13 C42,52 32,36 32,18z" fill="url(#glassGrad)" fill-opacity="0.6" stroke="#9aa4ad" stroke-width="3" stroke-linejoin="round"/>
    <clipPath id="bowlClip"><use href="#bowl"/></clipPath>
    <g clip-path="url(#bowlClip)">
      <path d="M38,31 C50,28 78,28 90,31 L90,72 C78,77 50,77 38,72 Z" fill="url(#wineGrad)"/>
      <path d="M40,32 C52,29 76,29 88,32" fill="none" stroke="#ffffff" stroke-opacity="0.4" stroke-width="2"/>
    </g>
    <path d="M34,18 h60" stroke="url(#hl)" stroke-width="3" stroke-linecap="round"/>
    <path d="M92,22 C92,44 83,58 70,66" fill="none" stroke="url(#hl)" stroke-width="3" stroke-linecap="round" opacity="0.8"/>
  </g>
</svg>
